PathFileType	4	(X/Y/Z)	C:\Users\Graham\Documents\MATLAB\MOtoNMS_v2_2\MyData\ElaboratedData\S8\22-05-17\staticElaborations\Static1\Static1\\Static1.trc
DataRate	CameraRate	NumFrames	NumMarkers	Units	OrigDataRate	DataStartFrame
100	100	8	38	mm	100	2
Frame#	Time	V_Sacral			R_ASIS			L_ASIS			R_Knee_Lat			R_Knee_Med			R_Thigh_Upper			R_Thigh_Front			R_Thigh_Rear			L_Knee_Lat			L_Knee_Med			L_Thigh_Upper			L_Thigh_Front			L_Thigh_Rear			R_Ankle_Lat			R_Ankle_Med			R_Shank_Upper			R_Shank_Front			R_Shank_Rear			L_Ankle_Lat			L_Ankle_Med			L_Shank_Upper			L_Shank_Front			L_Shank_Rear			R_Heel			R_MTP1			R_MTP5			L_Heel			L_MTP1			L_MTP5			Clavicle			R_Acromium			L_Acromium			LAJC			RAJC			LHJC			RHJC			LKJC			RKJC		
		X1	Y1	Z1	X2	Y2	Z2	X3	Y3	Z3	X4	Y4	Z4	X5	Y5	Z5	X6	Y6	Z6	X7	Y7	Z7	X8	Y8	Z8	X9	Y9	Z9	X10	Y10	Z10	X11	Y11	Z11	X12	Y12	Z12	X13	Y13	Z13	X14	Y14	Z14	X15	Y15	Z15	X16	Y16	Z16	X17	Y17	Z17	X18	Y18	Z18	X19	Y19	Z19	X20	Y20	Z20	X21	Y21	Z21	X22	Y22	Z22	X23	Y23	Z23	X24	Y24	Z24	X25	Y25	Z25	X26	Y26	Z26	X27	Y27	Z27	X28	Y28	Z28	X29	Y29	Z29	X30	Y30	Z30	X31	Y31	Z31	X32	Y32	Z32	X33	Y33	Z33	X34	Y34	Z34	X35	Y35	Z35	X36	Y36	Z36	X37	Y37	Z37	X38	Y38	Z38	

138	1.370000	-245.790022	1018.069788	-12.885864	-46.126967	992.974256	133.774726	-22.239239	993.265035	-96.632487	-129.591815	526.361245	176.126240	-144.496331	528.561374	39.680310	-13.321634	818.311972	136.599199	-28.036501	704.236208	87.973632	-47.136408	703.322601	158.895408	-109.149395	536.998220	-144.637655	-146.272707	530.888936	-10.323016	4.743202	810.872634	-64.161238	-19.802460	690.062097	-38.664225	-15.113498	695.964231	-114.139538	-182.962213	92.434321	141.836522	-171.207739	100.595570	66.028940	-111.065127	333.016295	129.087323	-145.414864	225.439623	83.985305	-140.267745	219.099522	156.759990	-177.710837	88.396431	-113.660210	-164.497675	99.832332	-36.406915	-109.303113	327.447826	-97.655394	-140.890841	220.829273	-54.042835	-127.603084	210.673074	-127.312029	-241.132757	51.552224	95.669556	-28.165250	63.802848	82.261951	-47.228705	51.583431	158.285109	-238.596513	57.818649	-74.809342	-26.683209	66.230778	-59.956806	-42.819481	52.321276	-135.045466	-71.841182	1390.037543	20.312486	-160.154116	1438.211739	173.384174	-141.912047	1448.560774	-162.108425	-171.104256	94.114382	-75.033563	-177.084976	96.514945	103.932731	-95.656206	920.512276	-72.084715	-112.927706	920.302035	94.506196	-127.711051	533.943578	-77.480335	-137.044073	527.461309	107.903275	
139	1.380000	-245.788875	1018.068160	-12.904465	-46.139279	992.970199	133.768379	-22.243266	993.260169	-96.640570	-129.602807	526.363199	176.119901	-144.499921	528.559825	39.673507	-13.332849	818.314045	136.593219	-28.046552	704.236265	87.967651	-47.149540	703.322034	158.889596	-109.146530	536.997348	-144.641121	-146.273239	530.890485	-10.327522	4.746488	810.874637	-64.163769	-19.796985	690.097909	-38.663444	-15.110137	695.961027	-114.138760	-182.960872	92.433478	141.837977	-171.207259	100.593366	66.030268	-111.070225	333.017197	129.083630	-145.416625	225.441040	83.982369	-140.273374	219.099489	156.757811	-177.711958	88.395302	-113.661034	-164.496977	99.831543	-36.406247	-109.301656	327.447402	-97.658315	-140.890628	220.828478	-54.043470	-127.606205	210.668241	-127.298830	-241.131532	51.550320	95.670056	-28.165643	63.803132	82.262501	-47.229328	51.582866	158.286825	-238.595883	57.818257	-74.810240	-26.683782	66.229429	-59.955462	-42.818288	52.321279	-135.044814	-71.849746	1390.018050	20.294399	-160.154145	1438.202169	173.367725	-141.900755	1448.553370	-162.127285	-171.104468	94.113422	-75.033640	-177.084065	96.513422	103.934123	-95.660807	920.507779	-72.094626	-112.938281	920.298123	94.497378	-127.709885	533.943917	-77.484321	-137.051364	527.461512	107.896704	
140	1.390000	-245.788668	1018.065154	-12.922741	-46.153359	992.964785	133.763205	-22.247814	993.254017	-96.647881	-129.615979	526.364457	176.114556	-144.506368	528.557817	39.668118	-13.346083	818.314653	136.588549	-28.058104	704.235318	87.963079	-47.163056	703.321114	158.885093	-109.145225	536.996234	-144.645663	-146.274980	530.891755	-10.332858	4.748833	810.877257	-64.168776	-19.798521	690.092711	-38.665750	-15.107862	695.957487	-114.139908	-182.959796	92.432023	141.839499	-171.207335	100.591161	66.031970	-111.077338	333.017926	129.081004	-145.420288	225.442217	83.979841	-140.279232	219.099314	156.756431	-177.713628	88.393887	-113.662031	-164.496560	99.830934	-36.405366	-109.301471	327.447255	-97.662140	-140.891385	220.827683	-54.044865	-127.609179	210.663573	-127.287676	-241.130860	51.548343	95.670552	-28.166385	63.803620	82.263251	-47.229784	51.581858	158.288839	-238.595744	57.817537	-74.811240	-26.684772	66.228063	-59.954142	-42.817413	52.321345	-135.043972	-71.858204	1389.996784	20.275579	-160.152876	1438.188357	173.350869	-141.888787	1448.542949	-162.147588	-171.105094	94.112411	-75.033699	-177.083566	96.511592	103.935735	-95.666039	920.501811	-72.104075	-112.950385	920.292689	94.489279	-127.710102	533.943994	-77.489260	-137.061173	527.461137	107.891337	
141	1.400000	-245.789382	1018.060908	-12.940832	-46.168796	992.958367	133.759148	-22.252711	993.246545	-96.654399	-129.631011	526.364965	176.110229	-144.515304	528.555392	39.664014	-13.360944	818.313694	136.585284	-28.070467	704.233463	87.960054	-47.176630	703.319936	158.882019	-109.145389	536.994849	-144.651361	-146.277862	530.892698	-10.339053	4.750073	810.880806	-64.176847	-19.807188	690.045311	-38.671122	-15.106756	695.953623	-114.143106	-182.959171	92.430055	141.840856	-171.207813	100.589135	66.033694	-111.086157	333.018524	129.079395	-145.425934	225.442965	83.977779	-140.285029	219.099106	156.755806	-177.715646	88.392345	-113.663158	-164.496474	99.830535	-36.404481	-109.302480	327.447341	-97.666847	-140.892987	220.826934	-54.047033	-127.611275	210.659765	-127.280876	-241.130778	51.546429	95.670999	-28.167462	63.804370	82.264136	-47.230095	51.580527	158.290901	-238.596120	57.816553	-74.812302	-26.686147	66.226834	-59.952968	-42.816890	52.321455	-135.043003	-71.866379	1389.974075	20.256234	-160.150828	1438.170625	173.333553	-141.876193	1448.529274	-162.169213	-171.106060	94.111440	-75.033820	-177.083492	96.509595	103.937275	-95.671767	920.494416	-72.112871	-112.963711	920.286055	94.482040	-127.711626	533.943773	-77.495207	-137.073158	527.460179	107.887121	
142	1.410000	-245.790974	1018.055691	-12.958807	-46.185068	992.951376	133.756034	-22.257768	993.237803	-96.660215	-129.647553	526.364747	176.106950	-144.526197	528.552630	39.661022	-13.376969	818.311224	136.583458	-28.083083	704.230798	87.958642	-47.190092	703.318575	158.880403	-109.146870	536.993168	-144.658188	-146.281820	530.893271	-10.346046	4.750128	810.885429	-64.188105	-19.822649	689.957596	-38.679148	-15.106841	695.949432	-114.148112	-182.959151	92.427702	141.841876	-171.208528	100.587438	66.035095	-111.096291	333.019031	129.078704	-145.433540	225.443112	83.976222	-140.290590	219.098958	156.755818	-177.717777	88.390810	-113.664356	-164.496767	99.830318	-36.403791	-109.304549	327.447576	-97.672326	-140.895267	220.826241	-54.049916	-127.611988	210.657336	-127.280049	-241.131234	51.544658	95.671359	-28.168822	63.805430	82.265076	-47.230301	51.578997	158.292743	-238.596883	57.815325	-74.813381	-26.687828	66.225880	-59.952037	-42.816727	52.321587	-135.042005	-71.874202	1389.950306	20.236533	-160.148598	1438.149787	173.315691	-141.863183	1448.512293	-162.191982	-171.107272	94.110564	-75.034073	-177.083839	96.507570	103.938486	-95.677849	920.485742	-72.120911	-112.977876	920.278648	94.475714	-127.714345	533.943220	-77.502117	-137.086875	527.458689	107.883986	
143	1.420000	-245.793383	1018.049864	-12.976644	-46.201623	992.944255	133.753611	-22.262806	993.227922	-96.665525	-129.665235	526.363885	176.104735	-144.538384	528.549630	39.658933	-13.393672	818.307458	136.583014	-28.095541	704.227428	87.958805	-47.203404	703.317074	158.880156	-109.149469	536.991177	-144.666015	-146.286781	530.893433	-10.353706	4.749000	810.891028	-64.202156	-19.844079	689.834724	-38.689092	-15.108057	695.944910	-114.154382	-182.959844	92.425098	141.842471	-171.209337	100.586155	66.035877	-111.107306	333.019487	129.078787	-145.442928	225.442540	83.975169	-140.295866	219.098929	156.756285	-177.719788	88.389365	-113.665548	-164.497485	99.830200	-36.403462	-109.307516	327.447850	-97.678384	-140.898035	220.825574	-54.053396	-127.611131	210.656540	-127.285819	-241.132108	51.543041	95.671602	-28.170375	63.806816	82.265990	-47.230444	51.577390	158.294119	-238.597763	57.813828	-74.814415	-26.689693	66.225299	-59.951403	-42.816905	52.321717	-135.041095	-71.881752	1389.925866	20.216603	-160.146781	1438.127072	173.297192	-141.850117	1448.492164	-162.215665	-171.108636	94.109783	-75.034505	-177.084590	96.505627	103.939174	-95.684155	920.476019	-72.128199	-112.992482	920.270921	94.470259	-127.718125	533.942305	-77.509861	-137.101809	527.456758	107.881834	
144	1.430000	-245.796523	1018.043817	-12.994239	-46.217957	992.937409	133.751604	-22.267675	993.217109	-96.670599	-129.683667	526.362498	176.103558	-144.551123	528.546507	39.657511	-13.410576	818.302740	136.583777	-28.107550	704.223469	87.960383	-47.216612	703.315441	158.881060	-109.152959	536.988873	-144.674624	-146.292653	530.893145	-10.361859	4.746762	810.897248	-64.218134	-19.870171	689.685084	-38.700016	-15.110263	695.940074	-114.161182	-182.961288	92.422370	141.842638	-171.210138	100.585293	66.035831	-111.118755	333.019932	129.079447	-145.453743	225.441211	83.974577	-140.300925	219.099029	156.756986	-177.721486	88.388030	-113.666647	-164.498665	99.830067	-36.403600	-109.311206	327.448048	-97.684776	-140.901099	220.824865	-54.057306	-127.608864	210.657336	-127.297706	-241.133229	51.541520	95.671709	-28.172012	63.808494	82.266805	-47.230561	51.575814	158.294847	-238.598394	57.811999	-74.815322	-26.691590	66.225130	-59.951076	-42.817383	52.321821	-135.040379	-71.889252	1389.901117	20.196536	-160.145898	1438.103961	173.277989	-141.837479	1448.469265	-162.239977	-171.110076	94.109049	-75.035123	-177.085713	96.503832	103.939235	-95.690570	920.465522	-72.134848	-113.007160	920.263293	94.465561	-127.722806	533.941009	-77.518241	-137.117395	527.454502	107.880534	
145	1.440000	-245.800272	1018.037914	-13.011435	-46.233685	992.931158	133.749773	-22.272278	993.205639	-96.675729	-129.702427	526.360711	176.103336	-144.563666	528.543368	39.656511	-13.427245	818.297491	136.585446	-28.118913	704.219063	87.963096	-47.229792	703.313654	158.882780	-109.157090	536.986277	-144.683725	-146.299312	530.892381	-10.370314	4.743540	810.903525	-64.234830	-19.899204	689.519861	-38.710916	-15.113248	695.934973	-114.167739	-182.963449	92.419623	141.842441	-171.210879	100.584780	66.034865	-111.130221	333.020398	129.080446	-145.465471	225.439184	83.974360	-140.305923	219.099220	156.757689	-177.722747	88.386778	-113.667562	-164.500322	99.829787	-36.404242	-109.315445	327.448084	-97.691232	-140.904286	220.824023	-54.061443	-127.605641	210.659417	-127.314224	-241.134403	51.539987	95.671662	-28.173620	63.810381	82.267463	-47.230674	51.574376	158.294836	-238.598388	57.809757	-74.816010	-26.693354	66.225344	-59.951021	-42.818108	52.321880	-135.039932	-71.897052	1389.876372	20.176398	-160.146344	1438.081972	173.258068	-141.825827	1448.444173	-162.264593	-171.111535	94.108282	-75.035902	-177.087164	96.502201	103.938653	-95.697007	920.454546	-72.141044	-113.021612	920.256091	94.461473	-127.728201	533.939329	-77.527019	-137.133047	527.452040	107.879923	
